<svg id="visual" viewBox="0 0 900 600" width="900" height="600" xmlns="http://www.w3.org/2000/svg" xmlns:xlink="http://www.w3.org/1999/xlink" version="1.1"><rect x="0" y="0" width="900" height="600" fill="#fff"></rect><path d="M0 397L21.5 416.8C43 436.7 86 476.3 128.8 477.8C171.7 479.3 214.3 442.7 257.2 437.3C300 432 343 458 385.8 468.3C428.7 478.7 471.3 473.3 514.2 460.7C557 448 600 428 642.8 423.8C685.7 419.7 728.3 431.3 771.2 448.3C814 465.3 857 487.7 878.5 498.8L900 510L900 601L878.5 601C857 601 814 601 771.2 601C728.3 601 685.7 601 642.8 601C600 601 557 601 514.2 601C471.3 601 428.7 601 385.8 601C343 601 300 601 257.2 601C214.3 601 171.7 601 128.8 601C86 601 43 601 21.5 601L0 601Z" fill="#0066FF" stroke-linecap="round" stroke-linejoin="miter"></path></svg>